<svg width="32" height="40" viewBox="0 0 32 40" fill="none" xmlns="http://www.w3.org/2000/svg">
<path fill-rule="evenodd" clip-rule="evenodd" d="M0.621749 0.127934C0.496916 0.194601 0.306572 0.35416 0.198649 0.482645C0.0145785 0.701928 0.00245156 1.8908 6.84e-05 19.9246C-0.00174734 33.8592 0.032405 39.199 0.124327 39.3737C0.194006 39.506 0.360051 39.6999 0.493167 39.8047C0.719794 39.9829 1.70719 39.9953 15.9817 39.9976L31.2283 40L31.6141 39.6253L32 39.2507V20V0.749311L31.6141 0.374656L31.2283 0L16.0385 0.00330579C5.21169 0.00573003 0.783576 0.0415427 0.621749 0.127934ZM29.5034 20V37.5758H15.9988H2.49422V20V2.42424H15.9988H29.5034V20ZM14.6937 3.51967C12.927 3.80187 11.3807 4.59273 10.0206 5.90942C9.10519 6.7957 8.91036 7.05631 8.41251 8.0595C7.74806 9.39835 7.4875 10.4302 7.4875 11.7225C7.4875 13.8797 8.35213 15.9836 9.85556 17.4845L10.3161 17.9442L10.3487 21.7525L10.3813 25.5608L10.7523 25.9209C11.0558 26.2154 11.2108 26.2806 11.6034 26.2786C12.0301 26.2764 12.2972 26.1318 14.0044 24.9794C15.0609 24.2662 15.9801 23.7034 16.0471 23.7286C16.1142 23.7538 17.0116 24.3376 18.0415 25.026C19.6914 26.1287 19.9704 26.2777 20.3888 26.2792C20.761 26.2807 20.939 26.211 21.2116 25.9574L21.5595 25.6337V21.9067C21.5595 18.241 21.5634 18.1765 21.8005 17.9879C22.2119 17.6605 23.3715 16.1982 23.6638 15.638C24.8155 13.4314 24.9299 10.7585 23.9675 8.54678C22.964 6.24066 20.9027 4.46832 18.3819 3.74446C17.443 3.47482 15.6563 3.36584 14.6937 3.51967ZM17.9473 6.17686C19.4467 6.66678 20.8408 7.85245 21.4942 9.19361C22.624 11.5126 22.1836 14.0357 20.3305 15.8616C17.9557 18.2012 14.1553 18.2012 11.7806 15.8616C9.71596 13.8274 9.42866 10.8709 11.0635 8.48309C12.5589 6.29884 15.4038 5.34579 17.9473 6.17686ZM18.6708 9.15207C18.4697 9.21036 17.7099 9.85532 16.7747 10.7617L15.2141 12.2742L14.9612 12.0599C14.8221 11.9421 14.557 11.6821 14.3721 11.482C13.7627 10.8227 13.1219 10.6423 12.4995 10.9548C12.1705 11.12 11.9259 11.481 11.8957 11.8457C11.8438 12.472 11.9413 12.6233 13.1848 13.8472C14.5807 15.2209 14.954 15.4248 15.5885 15.1596C16.0395 14.971 19.9812 11.1267 20.1675 10.6938C20.2445 10.5147 20.2765 10.2179 20.2387 10.0342C20.1654 9.67802 19.6953 9.14601 19.4538 9.14601C19.3738 9.14601 19.2403 9.12551 19.1573 9.1005C19.0741 9.07537 18.8552 9.09862 18.6708 9.15207ZM14.6937 20.7755V21.5205L13.8142 22.1194L12.9347 22.7185V21.1282V19.5379L13.8142 19.7841L14.6937 20.0305V20.7755ZM19.0628 21.1639V22.7133L18.1833 22.1264L17.3039 21.5395V20.7818V20.0241L18.0415 19.8346C18.4472 19.7304 18.843 19.6381 18.921 19.6296C19.0285 19.6181 19.0628 19.9895 19.0628 21.1639ZM4.47443 27.2783C3.75051 27.6253 3.74251 27.6749 3.74251 31.8831C3.74251 34.0883 3.78907 35.8069 3.85319 35.9707C3.91402 36.1262 4.1311 36.3524 4.33548 36.4734C4.70033 36.6894 4.91341 36.6934 15.976 36.6938C28.4333 36.6942 27.7062 36.737 28.0749 35.9825C28.2448 35.6349 28.2621 35.1658 28.2321 31.7467C28.1998 28.0824 28.1876 27.89 27.9713 27.6547C27.4536 27.0911 27.8096 27.1072 15.9173 27.11C6.2668 27.1122 4.7755 27.1341 4.47443 27.2783ZM25.6449 31.9559V34.27H15.942H6.23915V31.9559V29.6419H15.942H25.6449V31.9559ZM8.8871 30.7528C8.40161 30.8916 7.94129 31.4413 7.94186 31.8818C7.94242 32.3332 8.31526 32.9235 8.68658 33.0606C8.86418 33.1262 11.6989 33.168 15.9606 33.168C23.7573 33.168 23.5172 33.1906 23.8937 32.4201C24.0678 32.064 24.0719 31.9717 23.931 31.5846C23.8438 31.3452 23.6283 31.0457 23.452 30.9191C23.1361 30.6918 23.0386 30.6885 16.1891 30.6694C12.1664 30.6583 9.09534 30.6933 8.8871 30.7528Z" fill="black"/>
</svg>
