<svg width="38" height="40" viewBox="0 0 38 40" fill="none" xmlns="http://www.w3.org/2000/svg">
<path d="M33.7778 0H4.22222C1.87889 0 0 1.97778 0 4.44444V35.5556C0 36.7343 0.44484 37.8648 1.23666 38.6983C2.02848 39.5317 3.10242 40 4.22222 40H33.7778C36.1211 40 38 38.0222 38 35.5556V4.44444C38 3.2657 37.5552 2.13524 36.7633 1.30175C35.9715 0.468252 34.8976 0 33.7778 0ZM12.3078 9C14.3767 9 16.0444 10.7556 16.0444 12.9556C16.0444 15.1333 14.3767 16.8889 12.3078 16.8889C10.2178 16.8889 8.55 15.1333 8.55 12.9556C8.55 10.7556 10.2178 9 12.3078 9ZM25.7978 31.1111C23.7289 31.1111 22.0611 29.3333 22.0611 27.1556C22.0611 24.9778 23.7289 23.2222 25.7978 23.2222C27.8667 23.2222 29.5556 24.9778 29.5556 27.1556C29.5556 29.3333 27.8667 31.1111 25.7978 31.1111ZM11.6111 31.1778L8.44444 27.8444L26.4522 8.88889L29.6189 12.2222L11.6111 31.1778Z" fill="black"/>
</svg>
