<svg width="14" height="16" viewBox="0 0 14 16" fill="none" xmlns="http://www.w3.org/2000/svg">
<path d="M7.98118 12.3011V11.6406C7.98118 11.0961 8.09008 10.6061 8.30788 10.1705C8.52569 9.73011 8.83582 9.3821 9.23828 9.12642C9.64074 8.87074 10.119 8.7429 10.6729 8.7429C11.2317 8.7429 11.7099 8.87074 12.1076 9.12642C12.5053 9.3821 12.8107 9.73011 13.0238 10.1705C13.2369 10.6061 13.3434 11.0961 13.3434 11.6406V12.3011C13.3434 12.8456 13.2345 13.3357 13.0167 13.7713C12.8036 14.2069 12.4982 14.5549 12.1005 14.8153C11.7028 15.071 11.2269 15.1989 10.6729 15.1989C10.1095 15.1989 9.62654 15.071 9.22408 14.8153C8.82635 14.5549 8.51858 14.2069 8.30078 13.7713C8.08771 13.3357 7.98118 12.8456 7.98118 12.3011ZM9.09624 11.6406V12.3011C9.09624 12.8362 9.22644 13.2931 9.48686 13.6719C9.75201 14.0459 10.1474 14.233 10.6729 14.233C11.1843 14.233 11.5702 14.0459 11.8306 13.6719C12.091 13.2931 12.2212 12.8362 12.2212 12.3011V11.6406C12.2212 11.1056 12.0934 10.651 11.8377 10.277C11.582 9.8982 11.1938 9.70881 10.6729 9.70881C10.1568 9.70881 9.76385 9.8982 9.49396 10.277C9.22881 10.651 9.09624 11.1056 9.09624 11.6406ZM0.651634 3.81392V3.15341C0.651634 2.6089 0.760535 2.11884 0.978338 1.68324C1.19614 1.24763 1.50627 0.901988 1.90874 0.646306C2.3112 0.38589 2.78942 0.255681 3.34339 0.255681C3.90211 0.255681 4.38033 0.38589 4.77805 0.646306C5.17578 0.901988 5.48118 1.24763 5.69425 1.68324C5.90732 2.11884 6.01385 2.6089 6.01385 3.15341V3.81392C6.01385 4.35843 5.90495 4.85085 5.68714 5.29119C5.47408 5.7268 5.16868 6.07244 4.77095 6.32812C4.37322 6.58381 3.89737 6.71165 3.34339 6.71165C2.77995 6.71165 2.29699 6.58381 1.89453 6.32812C1.4968 6.07244 1.18904 5.7268 0.971236 5.29119C0.758168 4.85085 0.651634 4.35843 0.651634 3.81392ZM1.76669 3.15341V3.81392C1.76669 4.34896 1.8969 4.80587 2.15732 5.18466C2.42247 5.55871 2.81783 5.74574 3.34339 5.74574C3.85476 5.74574 4.24065 5.55871 4.50107 5.18466C4.76148 4.80587 4.89169 4.34896 4.89169 3.81392V3.15341C4.89169 2.61837 4.76385 2.16383 4.50817 1.78977C4.25249 1.41098 3.86423 1.22159 3.34339 1.22159C2.8273 1.22159 2.4343 1.41098 2.16442 1.78977C1.89927 2.16383 1.76669 2.61837 1.76669 3.15341ZM1.30504 15L11.2979 0.454545H12.555L2.56214 15H1.30504Z" fill="#9D9D9D"/>
</svg>
