<svg width="512" height="512" xmlns="http://www.w3.org/2000/svg" xmlns:svg="http://www.w3.org/2000/svg">
 <g class="layer">
  <rect fill="#000000" height="512" id="svg_1" rx="20" ry="20" transform="matrix(1 0 0 1 0 0)" width="512" x="1" y="-1"/>
  <path d="m441,108.6c12.5,-12.5 0.1,-23.8 -12.4,-36.3s-19.8,-21.5 -32.3,-9l-320,320c-12.5,12.5 0.5,22.8 13,35.3s19.8,22.5 32.3,10l319.4,-320zm-246,9.4a64,64 0 1 0 -128,0a64,64 0 1 0 128,0zm256,256a64,64 0 1 0 -128,0a64,64 0 1 0 128,0z" fill="#ffffff" id="svg_2"/>
 </g>
</svg>
