<svg width="29" height="40" viewBox="0 0 29 40" fill="none" xmlns="http://www.w3.org/2000/svg">
<path d="M15.2712 6.6142C17.104 6.75504 18.707 5.39083 18.8522 3.5741C18.999 1.74821 17.6314 0.15066 15.7986 0.00982229C13.9634 -0.129349 12.3604 1.22653 12.2184 3.05242C12.0756 4.87748 13.444 6.4717 15.2712 6.6142ZM29 33.3334L27.8925 23.3331H26.0956C26.1124 22.4997 26.11 22.4072 26.0549 21.9014C26.0015 21.3838 25.8443 21.0055 25.5881 20.8863C25.798 20.653 25.9376 20.3563 25.9648 20.0221C25.9837 19.7687 25.9392 19.5144 25.8357 19.2843C25.7322 19.0542 25.5732 18.8562 25.3743 18.7096L20.8007 15.5695L17.4335 8.94761C16.8758 8.08091 15.931 7.38172 14.7908 7.28172C13.9147 7.21839 13.1088 7.5209 12.457 7.97091L5.77526 13.3728C5.55176 13.5553 5.39036 13.808 5.31487 14.0936L3.75815 20.6363L3.64006 20.8305V20.833H3.62729C3.36638 20.833 3.1286 21.093 3.03764 21.4372C2.94987 21.7747 2.84215 22.2205 2.84215 22.5814V23.3331H1.1075L0 33.3334H4.47547L2.51341 36.6127C2.38575 36.8668 2.23574 37.226 2.20941 37.5727C2.11286 38.8144 3.03844 39.8936 4.27918 39.9928C5.16566 40.0544 5.92846 39.6078 6.39205 38.8944L9.70337 33.3334H10.1366L10.0688 32.7192L10.9872 31.1758C11.0869 30.9691 11.4037 30.4633 11.4388 30.2233L12.5607 25.1315L17.3489 30.3591L18.8522 38.2185C19.0924 39.1477 19.86 39.9144 20.8813 39.9928C22.1236 40.0911 23.2112 39.1752 23.3101 37.936L23.2965 37.4794L22.5114 33.3334H29ZM3.60575 22.4914C3.65043 22.0972 3.79166 21.873 4.04061 21.873L4.13397 21.8714C4.38531 22.1889 4.75873 22.4064 5.1896 22.443C5.421 22.4597 5.65299 22.4209 5.86778 22.3294C6.08257 22.238 6.27447 22.0964 6.42875 21.9155C6.50496 21.9885 6.55952 22.0828 6.58594 22.1872C6.65217 22.4264 6.69047 22.7005 6.69047 22.9264C6.69047 23.0614 6.68408 23.3331 6.67531 23.3331H3.58261C3.57224 23.3331 3.57543 22.7972 3.60575 22.4914ZM8.17857 23.3331H7.23304C7.25299 22.4997 7.24741 22.4072 7.19554 21.9014C7.15086 21.468 7.03357 21.133 6.84765 20.9613L8.02776 15.5928L10.3553 13.7119L8.17857 23.3331ZM25.5395 23.3331H22.4444C22.4316 23.3331 22.4356 22.7972 22.4675 22.4914C22.509 22.0972 22.6526 21.873 22.9024 21.873C23.2606 21.873 23.5854 21.8614 23.8734 21.8547C24.1631 21.8439 24.558 21.8289 25.0551 21.8289C25.2458 21.8289 25.3751 21.9472 25.4469 22.188C25.5155 22.4272 25.5522 22.7014 25.5522 22.9272L25.5395 23.3331ZM15.5289 21.4305L17.029 14.817L18.2905 17.3029C18.3902 17.4737 18.5083 17.6146 18.6639 17.7471L23.1697 20.833H22.4891C22.2281 20.833 22.1324 21.093 22.0422 21.4372C21.9569 21.7747 21.992 22.2205 21.992 22.5814V23.3331H19.9717L19.6453 26.2748L15.5289 21.4305Z" fill="black"/>
</svg>
