<svg width="60" height="60" viewBox="0 0 60 60" fill="none" xmlns="http://www.w3.org/2000/svg">
<path d="M59.9651 45.3238C59.4301 49.389 57.4337 53.1204 54.3487 55.8211C51.2636 58.5219 47.301 60.0073 43.2008 60C19.3804 60 2.71464e-05 40.6198 2.71464e-05 16.7996C-0.00732292 12.6994 1.47811 8.73674 4.1789 5.65173C6.87968 2.56672 10.6111 0.570319 14.6763 0.0353933C15.7043 -0.0901252 16.7453 0.12018 17.6439 0.634914C18.5425 1.14965 19.2506 1.94121 19.6624 2.89142L25.9985 17.0366V17.0726C26.3137 17.7999 26.4439 18.5941 26.3775 19.384C26.311 20.174 26.0499 20.9352 25.6175 21.5996C25.5635 21.6806 25.5065 21.7556 25.4465 21.8306L19.2004 29.2347C21.4474 33.8007 26.2235 38.5348 30.8496 40.7878L38.1517 34.5747C38.2234 34.5144 38.2985 34.4584 38.3767 34.4067C39.0406 33.9639 39.8044 33.6936 40.599 33.6203C41.3937 33.547 42.194 33.6729 42.9278 33.9867L42.9668 34.0047L57.1 40.3378C58.0519 40.7481 58.8454 41.4555 59.3618 42.3543C59.8783 43.253 60.0899 44.2948 59.9651 45.3238Z" fill="black"/>
</svg>
