<svg width="40" height="40" viewBox="0 0 40 40" fill="none" xmlns="http://www.w3.org/2000/svg">
<path fill-rule="evenodd" clip-rule="evenodd" d="M20.104 0H19.896C18.098 0 16.6 8.61754e-08 15.412 0.154217C14.156 0.316145 13.022 0.674699 12.112 1.55181C11.2 2.43084 10.828 3.52386 10.66 4.73253C10.546 5.55566 10.512 7.52 10.504 9.20482C6.46 9.33398 4.03 9.78892 2.344 11.4159C-2.38419e-07 13.6733 0 17.3089 0 24.5783C0 31.8477 -2.38419e-07 35.4834 2.344 37.7407C4.686 40 8.458 40 16 40H24C31.542 40 35.314 40 37.656 37.7407C40 35.4834 40 31.8477 40 24.5783C40 17.3089 40 13.6733 37.656 11.4159C35.97 9.78892 33.54 9.33398 29.496 9.20675C29.488 7.52 29.456 5.55566 29.34 4.73446C29.172 3.52386 28.8 2.43084 27.888 1.55374C26.978 0.674699 25.844 0.316145 24.588 0.154217C23.4 8.61754e-08 21.9 0 20.104 0ZM26.496 9.16048C26.486 7.52771 26.458 5.77157 26.368 5.11807C26.242 4.2294 26.028 3.84771 25.768 3.59711C25.508 3.34651 25.112 3.14024 24.188 3.0188C23.224 2.89542 21.928 2.89157 20 2.89157C18.072 2.89157 16.776 2.89542 15.81 3.02072C14.888 3.14024 14.492 3.34651 14.232 3.59904C13.972 3.84964 13.758 4.2294 13.632 5.11807C13.542 5.77349 13.512 7.52771 13.504 9.16048C14.286 9.15663 15.12 9.15663 16 9.15663H24C24.882 9.15663 25.714 9.15663 26.496 9.16048ZM20 15.4217C20.3978 15.4217 20.7794 15.574 21.0607 15.8451C21.342 16.1163 21.5 16.484 21.5 16.8675V16.8867C23.678 17.4149 25.5 19.0708 25.5 21.3648C25.5 21.7483 25.342 22.116 25.0607 22.3871C24.7794 22.6583 24.3978 22.8106 24 22.8106C23.6022 22.8106 23.2206 22.6583 22.9393 22.3871C22.658 22.116 22.5 21.7483 22.5 21.3648C22.5 20.6246 21.648 19.599 20 19.599C18.352 19.599 17.5 20.6246 17.5 21.3648C17.5 22.1051 18.352 23.1325 20 23.1325C22.77 23.1325 25.5 24.9831 25.5 27.7918C25.5 30.0858 23.678 31.7398 21.5 32.2699V32.2892C21.5 32.6726 21.342 33.0403 21.0607 33.3115C20.7794 33.5826 20.3978 33.7349 20 33.7349C19.6022 33.7349 19.2206 33.5826 18.9393 33.3115C18.658 33.0403 18.5 32.6726 18.5 32.2892V32.2699C16.322 31.7417 14.5 30.0858 14.5 27.7918C14.5 27.4084 14.658 27.0406 14.9393 26.7695C15.2206 26.4983 15.6022 26.346 16 26.346C16.3978 26.346 16.7794 26.4983 17.0607 26.7695C17.342 27.0406 17.5 27.4084 17.5 27.7918C17.5 28.532 18.352 29.5576 20 29.5576C21.648 29.5576 22.5 28.532 22.5 27.7918C22.5 27.0516 21.648 26.0241 20 26.0241C17.23 26.0241 14.5 24.1735 14.5 21.3648C14.5 19.0708 16.322 17.4149 18.5 16.8867V16.8675C18.5 16.484 18.658 16.1163 18.9393 15.8451C19.2206 15.574 19.6022 15.4217 20 15.4217Z" fill="black"/>
</svg>
