<svg width="40" height="40" viewBox="0 0 40 40" fill="none" xmlns="http://www.w3.org/2000/svg">
<path fill-rule="evenodd" clip-rule="evenodd" d="M18.5332 0.302528C18.0768 0.513216 17.3998 1.04143 16.3079 2.03864C15.4447 2.82693 14.6131 3.51445 14.4599 3.56638C14.2781 3.62812 13.4261 3.55844 12.0037 3.3655C10.2039 3.12141 9.72671 3.09054 9.25419 3.18789C8.08827 3.42824 7.12615 4.1302 6.63975 5.09555C6.49999 5.37283 6.26004 6.28692 6.1064 7.1267C5.64834 9.63037 5.62609 9.71714 5.38145 9.95219C5.25213 10.0764 4.38181 10.5618 3.44721 11.0308C1.0184 12.2496 0.4101 12.8338 0.0758474 14.2688C-0.129087 15.1485 0.0463624 15.7594 1.12565 17.9257C1.62571 18.9292 2.0348 19.8714 2.0348 20.0194C2.0348 20.1674 1.6177 21.1188 1.108 22.1335C0.0407584 24.2581 -0.131039 24.8617 0.0771083 25.7555C0.410098 27.1851 1.06944 27.819 3.42779 28.9772C4.33405 29.4222 5.20462 29.9183 5.3624 30.0797C5.59177 30.3142 5.69215 30.6159 5.86369 31.5857C6.4108 34.6787 6.70157 35.4415 7.57753 36.0812C8.75769 36.9431 9.32855 37.0179 11.9712 36.6573C13.1491 36.4964 14.2431 36.3963 14.4022 36.4347C14.5614 36.4731 15.4092 37.159 16.2862 37.959C18.3206 39.8149 18.7701 40.0493 20.1846 39.9927C21.0851 39.9566 21.2398 39.9166 21.807 39.5729C22.1519 39.364 23.0939 38.5841 23.9005 37.8399C24.707 37.0956 25.4835 36.4586 25.626 36.4242C25.7685 36.3898 26.6764 36.4739 27.6434 36.6111C30.6685 37.04 31.4847 36.9294 32.6034 35.9385C33.4017 35.2315 33.6499 34.6197 34.0457 32.3841C34.2363 31.3072 34.4516 30.3347 34.5243 30.223C34.6845 29.9766 34.707 29.963 36.2862 29.1625C38.3071 28.1382 38.8473 27.7949 39.2649 27.2693C39.8365 26.5501 40.0554 25.825 39.9882 24.8738C39.9384 24.1702 39.8357 23.8953 38.9987 22.2254C38.4254 21.0815 38.0647 20.2252 38.0647 20.0075C38.0647 19.7892 38.4247 18.937 39.0007 17.7914C39.8433 16.116 39.9421 15.8518 39.9901 15.1451C40.0831 13.7815 39.5165 12.6684 38.377 11.9764C38.0475 11.7763 37.1582 11.2989 36.4009 10.9156C34.8773 10.1442 34.5489 9.94117 34.4513 9.70997C34.4149 9.62387 34.2309 8.68597 34.0423 7.62558C33.8537 6.5653 33.6031 5.48848 33.4854 5.23281C33.2111 4.63735 32.5359 3.91984 31.9268 3.57685C31.0465 3.08117 30.4576 3.04942 28.038 3.36738C26.8438 3.52437 25.7543 3.62558 25.6168 3.59251C25.4794 3.55932 24.7066 2.92329 23.8994 2.17899C21.7585 0.204846 21.3866 0.000441535 19.935 5.33917e-07C19.3568 -0.000219967 19.0417 0.0678045 18.5332 0.302528ZM21.1398 2.96684C21.4554 3.25029 22.1683 3.90154 22.7241 4.41421C24.2498 5.82122 25.1893 6.18946 26.6822 5.96543C27.105 5.90203 28.0912 5.76676 28.874 5.66477C30.2254 5.48882 30.316 5.48926 30.6729 5.67393C30.8796 5.78087 31.1039 5.99894 31.1714 6.15859C31.239 6.31812 31.4507 7.29207 31.6421 8.32291C32.1964 11.309 32.4143 11.5923 35.293 13.0682C37.1478 14.0192 37.6028 14.3761 37.606 14.8828C37.6065 14.9738 37.1549 15.9412 36.6023 17.0327L35.5977 19.0172V20.0095V21.0017L36.6151 23.01C37.7053 25.1621 37.7368 25.3059 37.232 25.8378C37.0904 25.987 36.5099 26.3432 35.9419 26.6294C33.1346 28.0442 32.7416 28.3263 32.2313 29.2931C32.1099 29.5232 31.8454 30.5982 31.6438 31.6819C31.4421 32.7656 31.2233 33.7657 31.1576 33.9041C31.092 34.0426 30.8715 34.2421 30.6677 34.3476C30.3171 34.529 30.2201 34.5294 28.874 34.3541C28.0912 34.2521 27.105 34.1169 26.6822 34.0535C25.7902 33.9196 24.9727 34.0443 24.22 34.429C23.9579 34.5631 23.0376 35.3177 22.1753 36.106C21.313 36.8943 20.4878 37.5707 20.3416 37.609C19.7551 37.7631 19.4421 37.5724 17.862 36.0989C15.5664 33.9581 15.1259 33.7978 12.534 34.1598C9.50744 34.5823 9.35208 34.5769 8.98271 34.0353C8.8846 33.8914 8.62779 32.8488 8.41184 31.7183C7.98109 29.4619 7.70627 28.7908 6.97041 28.1976C6.63684 27.9287 4.77707 26.9192 3.2279 26.1658C2.817 25.9661 2.49376 25.4988 2.49376 25.1046C2.49376 24.9544 2.86144 24.1186 3.31089 23.2474C3.76024 22.3761 4.22493 21.395 4.34358 21.0671C4.76538 19.901 4.6261 19.3215 3.31089 16.7715C2.86144 15.9003 2.49376 15.0483 2.49376 14.8782C2.49376 14.4201 2.93647 13.9945 3.94554 13.4827C7.009 11.929 7.15725 11.8294 7.65604 10.9911C8.01944 10.3804 8.0753 10.173 8.52005 7.77927C8.8239 6.14425 8.97939 5.78848 9.46809 5.60998C9.79053 5.49223 9.92764 5.50315 12.5751 5.85815C15.1692 6.20588 15.568 6.05925 17.8702 3.91235C19.8238 2.09046 20.0813 2.01604 21.1398 2.96684ZM14.1686 9.70347C13.0764 9.96862 11.9777 10.7615 11.4077 11.6959C10.0838 13.8666 10.9972 16.6441 13.3945 17.7372C13.9503 17.9905 14.1694 18.0249 15.2305 18.0249C16.309 18.0249 16.5019 17.9935 17.0698 17.7255C18.3714 17.1113 19.194 16.1209 19.5482 14.7416C20.0215 12.8986 18.9568 10.8422 17.095 10.0033C16.3013 9.6457 14.9688 9.50921 14.1686 9.70347ZM27.3411 11.3763C27.0191 11.5558 11.1567 26.8122 11.0004 27.0928C10.821 27.4146 10.8374 27.8423 11.0434 28.2253C11.2662 28.639 11.5394 28.7744 12.1516 28.7744H12.6449L20.7728 20.9741C25.243 16.684 28.9791 13.0315 29.0751 12.8574C29.5968 11.9113 28.327 10.8268 27.3411 11.3763ZM16.2936 12.2957C17.7034 13.2163 17.3387 15.2279 15.6843 15.6559C14.8639 15.8681 13.8587 15.4182 13.4478 14.6547C13.0479 13.9116 13.3993 12.7782 14.1878 12.2677C14.7501 11.9035 15.7125 11.9163 16.2936 12.2957ZM23.6068 22.0359C21.2183 22.7869 19.8857 25.1749 20.6079 27.4101C21.8141 31.1439 27.131 31.4699 28.8645 27.9164C29.1369 27.3579 29.172 27.154 29.1717 26.1283C29.1713 25.0676 29.1431 24.9172 28.8353 24.3326C28.4041 23.5134 27.537 22.6828 26.7184 22.3049C26.1819 22.0571 25.8911 22.002 24.9838 21.9764C24.3842 21.9596 23.7646 21.9862 23.6068 22.0359ZM25.9272 24.6444C26.4911 25.0011 26.7495 25.4945 26.7426 26.2007C26.732 27.2754 25.9384 28.0026 24.7759 28.0026C23.774 28.0026 23.0306 27.3171 22.944 26.3135C22.8044 24.6966 24.5059 23.7446 25.9272 24.6444Z" fill="black"/>
</svg>
