<svg width="33" height="40" viewBox="0 0 33 40" fill="none" xmlns="http://www.w3.org/2000/svg">
<path fill-rule="evenodd" clip-rule="evenodd" d="M14.2613 0.221457C13.4134 0.601471 12.7528 1.57332 12.7509 2.44349C12.7503 2.66731 12.6248 2.7941 12.1234 3.07751C11.5038 3.42767 11.4907 3.42988 11.0001 3.26597C9.50177 2.76535 8.41433 3.27258 7.41935 4.93605C6.41653 6.61285 6.21975 7.10874 6.29016 7.78043C6.36627 8.50609 6.69737 9.15476 7.1994 9.56209C7.56453 9.85817 7.58915 9.92041 7.61165 10.6041C7.63538 11.3249 7.63157 11.3348 7.18406 11.7328C6.5738 12.2753 6.21919 13.1023 6.28131 13.8384C6.31825 14.2773 6.49455 14.6946 7.07929 15.7269C8.14535 17.609 8.62656 18.0412 9.78698 18.1591C10.202 18.2013 10.5448 18.1612 10.9268 18.026L11.4732 17.8327L12.1116 18.1873C12.5786 18.4467 12.7503 18.6058 12.7509 18.7792C12.753 19.6071 13.4323 20.5876 14.2613 20.959C14.9193 21.2539 18.0807 21.2539 18.7387 20.959C19.5606 20.5906 20.2469 19.6072 20.2491 18.7946C20.2496 18.6422 20.4486 18.4554 20.882 18.2003L21.5141 17.8282L22.0293 18.01C23.0203 18.3594 24.089 18.1373 24.7777 17.4387C25.2602 16.9496 26.6017 14.6444 26.6991 14.1372C26.8572 13.3144 26.481 12.303 25.7971 11.7122C25.4166 11.3834 25.3988 11.3356 25.3988 10.6453C25.3988 9.95499 25.4166 9.90719 25.7971 9.57839C26.3146 9.1313 26.6342 8.50169 26.7098 7.78043C26.7803 7.10874 26.5835 6.61285 25.5807 4.93605C24.5857 3.27258 23.4982 2.76535 21.9999 3.26597C21.5093 3.42988 21.4962 3.42767 20.8766 3.07751C20.3752 2.7941 20.2497 2.66731 20.2491 2.44349C20.2473 1.59557 19.5664 0.590896 18.7449 0.22366C18.0804 -0.0734121 14.9226 -0.0749542 14.2613 0.221457ZM17.7872 2.71038C17.7872 2.85963 17.8911 3.25496 18.0182 3.58893C18.2987 4.32682 18.7605 4.74076 20.0231 5.38568C21.0484 5.90944 21.7785 5.99646 22.5357 5.68507C22.7614 5.59232 22.9909 5.54364 23.0459 5.57712C23.1009 5.6105 23.4063 6.0859 23.7249 6.63367L24.3039 7.62942L23.8401 8.02023C23.0475 8.68784 22.8921 9.115 22.8857 10.6453C22.8806 11.8937 22.8974 11.9957 23.1879 12.4821C23.3572 12.7654 23.6781 13.1452 23.9011 13.3261L24.3065 13.655L23.7176 14.659C23.3937 15.2113 23.0907 15.6863 23.0443 15.7145C22.998 15.7427 22.7678 15.6867 22.5329 15.5901C22.2396 15.4696 21.8762 15.428 21.3736 15.4575C20.7607 15.4934 20.5141 15.5744 19.858 15.955C18.4265 16.7858 18.0949 17.1625 17.8427 18.2456L17.7144 18.7963H16.4993H15.2842L15.1263 18.0972C14.9935 17.5081 14.8858 17.3172 14.4433 16.8856C14.1545 16.6037 13.5672 16.177 13.1383 15.9373C12.2086 15.4178 11.2038 15.2872 10.4671 15.5901C10.2323 15.6867 10.002 15.7427 9.95566 15.7145C9.90932 15.6863 9.60631 15.2113 9.28238 14.659L8.69349 13.655L9.09892 13.3261C9.32189 13.1452 9.64281 12.7654 9.81205 12.4821C10.1026 11.9957 10.1194 11.8937 10.1143 10.6453C10.1079 9.115 9.95253 8.68784 9.15992 8.02023L8.69607 7.62942L9.2751 6.63367C9.59367 6.0859 9.89913 5.6105 9.95409 5.57712C10.0091 5.54364 10.2386 5.59232 10.4643 5.68507C11.2215 5.99646 11.9516 5.90944 12.9769 5.38568C14.2395 4.74076 14.7013 4.32682 14.9818 3.58893C15.1089 3.25496 15.2128 2.85963 15.2128 2.71038V2.4392H16.5H17.7872V2.71038ZM15.4366 6.44421C13.184 7.04772 11.7295 9.25037 12.1767 11.381C12.5597 13.2057 13.8998 14.5297 15.7366 14.8983C18.5962 15.472 21.3742 12.7772 20.8396 9.94838C20.3642 7.43258 17.8453 5.79896 15.4366 6.44421ZM17.3429 8.96552C18.5361 9.55868 18.7905 11.0569 17.8544 11.9781C16.7206 13.0938 14.8323 12.4476 14.5906 10.8611C14.4687 10.0614 14.9205 9.28451 15.7165 8.92488C16.312 8.65578 16.7414 8.66647 17.3429 8.96552ZM11.5058 23.3128C11.3447 23.3989 10.7965 24.0183 10.2879 24.6891L9.36286 25.9087L5.93555 27.607C2.80565 29.1578 2.44847 29.3637 1.82007 29.9791C1.09037 30.6935 0.584093 31.5164 0.263066 32.5099C0.104903 32.9992 0.0576665 33.6546 0.0170344 35.9175C-0.0375894 38.9647 0.0171464 39.3913 0.511223 39.7738C0.802812 39.9996 0.83628 40 16.5 40C32.1637 40 32.1972 39.9996 32.4888 39.7738C32.9829 39.3913 33.0376 38.9647 32.983 35.9175C32.9423 33.6546 32.8951 32.9992 32.7369 32.5099C32.3961 31.455 31.8951 30.6678 31.0869 29.9176C30.3882 29.269 30.0072 29.0503 26.9893 27.5647L23.6622 25.927L22.7231 24.6968C22.2065 24.0201 21.6427 23.3947 21.4702 23.3069C21.0104 23.073 11.9442 23.0783 11.5058 23.3128ZM18.3469 25.6297C18.3469 25.701 16.5557 27.9938 16.5 27.9938C16.4443 27.9938 14.6531 25.701 14.6531 25.6297C14.6531 25.5971 15.4842 25.5705 16.5 25.5705C17.5158 25.5705 18.3469 25.5971 18.3469 25.6297ZM13.4802 28.1645C14.2177 29.1065 14.821 29.9202 14.821 29.9726C14.821 30.025 14.4491 30.4943 13.9946 31.0153L13.1683 31.9625L12.3498 29.5248L11.5314 27.0871L11.77 26.7695C11.9013 26.5946 12.0382 26.4517 12.0741 26.4517C12.1101 26.4517 12.7428 27.2224 13.4802 28.1645ZM21.23 26.7695L21.4686 27.0871L20.6502 29.5248L19.8317 31.9625L19.0054 31.0153C18.5509 30.4943 18.179 30.025 18.179 29.9726C18.179 29.8555 20.8345 26.4517 20.9259 26.4517C20.9618 26.4517 21.0987 26.5946 21.23 26.7695ZM10.4449 31.6011C10.9879 33.2217 11.5029 34.6985 11.5893 34.8829C11.9012 35.5486 12.7943 35.7965 13.3449 35.3702C13.504 35.2472 14.2537 34.4395 15.0111 33.5753C15.7684 32.7112 16.4279 31.9924 16.4767 31.9777C16.5255 31.9631 17.1954 32.6701 17.9657 33.5488C18.7358 34.4275 19.496 35.2472 19.6551 35.3702C20.0972 35.7124 20.6278 35.6626 21.0821 35.2361C21.4204 34.9185 21.5807 34.527 22.503 31.7664C23.0749 30.0549 23.583 28.6547 23.6322 28.6547C23.6814 28.6547 24.8826 29.2263 26.3017 29.9251C30.3362 31.9115 30.5477 32.2053 30.5477 35.8197V37.5767H16.5H2.45227V35.8197C2.45227 32.2128 2.65107 31.9333 6.62249 29.9584C8.05345 29.2468 9.27678 28.6624 9.34103 28.6596C9.40517 28.6569 9.90193 29.9806 10.4449 31.6011Z" fill="black"/>
</svg>
