<svg id="Layer_1" data-name="Layer 1" xmlns="http://www.w3.org/2000/svg" viewBox="0 0 241 52"><defs><style>.cls-1{fill:#fff;}</style></defs><title>Ліга майстрів_платформа будівельників_білий</title><path class="cls-1" d="M4,3.66.38,7.33.29,8.42C.25,9,.18,9.79.15,10.13a2.24,2.24,0,0,0,0,.68s.86,0,1.84,0l1.8,0L6,8.56l3.06,3.07c1.69,1.69,3.07,3.1,3.07,3.14a25.72,25.72,0,0,1-3.36.58l-.7.08-.27,0v2.36c0,2.15,0,2.83.19,5.33L8,24H0V35.39H5.09l5.09,0,.39,1.16c.22.63.49,1.4.62,1.7l.22.54L6,44.25l-1.06.58a5.85,5.85,0,0,1-2,.91,4,4,0,0,0-1.72.87,4.12,4.12,0,0,0-.56.83,2.27,2.27,0,0,0-.28,1.28,3.56,3.56,0,0,0,0,.85c.05.1.25-.06,1.08-.9.55-.56,1.06-1.05,1.13-1.09s.72.2,1.36.83.86,1,.86,1.25a7.19,7.19,0,0,1-1,1.18c-.58.58-1,1.07-1,1.1a3.53,3.53,0,0,0,.89.06A2.25,2.25,0,0,0,5,51.79a3.35,3.35,0,0,0,1.47-1.41,5.3,5.3,0,0,0,.4-1.5,6.71,6.71,0,0,1,.67-2.31c.11-.18,1.29-1.4,2.66-2.76l2.47-2.43.31.52a20.14,20.14,0,0,0,11.66,9.54c1.62.49,1.79.51,2.53.34A18.62,18.62,0,0,0,35,47.56a25.23,25.23,0,0,0,4-4.9c.13-.22.27-.4.3-.39s.87.81,1.88,1.78l3.59,3.47,1.91,1.84.91.88.77.74,1,.15c1.61.23,1.49.22,1.45.09s-.1-.45-.19-.85c-.33-1.62-.23-1.41-1-2.1L48.09,46.7c-1.54-1.51-6.17-6-6.76-6.5a2.2,2.2,0,0,1-.53-.64,1.85,1.85,0,0,1,.17-.48,18.44,18.44,0,0,0,1-2.46l.41-1.2,4.81,0H52V24h-7.1l0-.85c0-.47.08-1.47.12-2.22s.08-2.3.09-3.43l0-2.06-.72-.05a37.37,37.37,0,0,1-4.65-.67S45.57,8.81,46,8.5a5.81,5.81,0,0,1,2.2-1A8.66,8.66,0,0,0,49.65,7a3,3,0,0,0,1.41-2.66c0-1,0-1-1.2.25-1,1-1.12,1.09-1.28,1a4.85,4.85,0,0,1-2-2.07,5.6,5.6,0,0,1,1.06-1.21,7.93,7.93,0,0,0,1-1.14,3.72,3.72,0,0,0-.86-.06,2.06,2.06,0,0,0-1.38.29,3,3,0,0,0-.91.67,3.86,3.86,0,0,0-.93,2.48,4.61,4.61,0,0,1-1.73,3.25l-3.11,3c-1.2,1.19-2.21,2.14-2.23,2.13a2.1,2.1,0,0,1-.06-.5A11.08,11.08,0,0,0,33.85,5c-.91-.85-2.48-1.89-2.54-1.68L31,4.84c-.14.82-.34,2-.45,2.59-.22,1.25-.34,1.51-.77,1.65a.76.76,0,0,1-.86-.25c-.32-.31-.32-.25.56-5.11.14-.76.25-1.45.25-1.53,0-.24-.73-.87-1.17-1a23.16,23.16,0,0,0-4.56,0A2.54,2.54,0,0,0,22.88,2c-.09.18-.09.2.63,4.21.15.78.28,1.63.3,1.89,0,.45,0,.48-.17.71a.83.83,0,0,1-1.25,0c-.16-.18-.23-.49-.83-3.9-.11-.59-.22-1.22-.26-1.42l-.08-.36L21,3.3a12.66,12.66,0,0,0-4,3.6,11.27,11.27,0,0,0-1.82,4.91c-.12,1.34-.12,1.34-.29,1.34a39.57,39.57,0,0,1-3.5-3.35L8.09,6.47,9.63,4.91l1.54-1.57L9.5,1.67C8.59.75,7.8,0,7.76,0S6,1.65,4,3.66m26.35,9.66a38,38,0,0,1,5.63.92,5,5,0,0,1,1.21.36c0,.08-21.24.08-21.29,0a3.26,3.26,0,0,1,.88-.28,37.15,37.15,0,0,1,6.37-1l1.37-.1C25.13,13.12,29.23,13.22,30.38,13.32Zm13.26,4.82c-.09,2.39-.2,4.61-.3,5.84l-.12,1.48,3.62,0h3.64v8.38h-49V25.49H9.68v-.2c0-.11-.07-1-.15-2s-.16-2.66-.19-3.7L9.29,17.7H43.65ZM19.71,36.76v1.37H33.15V35.39h1v1.38l0,1.4,2.76,0h2.77l-.23.47-.23.47H27v2.11l0,2.12,9.64.07-.36.45-.37.45H34.16v1.94l-.47.4a3.16,3.16,0,0,1-.5.41,13.22,13.22,0,0,1,0-1.41V44.27H19.71v1.48c0,1.14,0,1.48-.09,1.48a1.82,1.82,0,0,1-.48-.32l-.4-.33,0-1.1,0-1.1-2.18-.05-.38-.46-.37-.47H26.07V39.14H13.24l-.2-.42a4.3,4.3,0,0,1-.19-.47s1.31,0,2.91-.06l2.91,0,0-1.4V35.39h1Zm11.2,11.88a6,6,0,0,1-.75.4l-.75.36-6.19,0-.7-.35a5.35,5.35,0,0,1-.71-.38s2.05,0,4.55,0S30.91,48.62,30.91,48.64Z"/><polyline class="cls-1" points="39.19 20.96 38.54 21.61 39.84 22.91 41.14 21.61 39.84 20.31 39.19 20.96"/><polyline class="cls-1" points="12.42 20.96 11.77 21.61 13.07 22.91 14.37 21.61 13.07 20.31 12.42 20.96"/><path class="cls-1" d="M18.06,19.48c0,.5,0,.94,0,1.33s-.05.71-.07,1a4.71,4.71,0,0,1-.12.68,1.8,1.8,0,0,1-.14.43.58.58,0,0,1-.17.25.41.41,0,0,1-.18.1.54.54,0,0,1-.19,0,1.34,1.34,0,0,1-.38,0l-.11,1.26.41.08a3.53,3.53,0,0,0,.56.05,2.19,2.19,0,0,0,.47-.05,1.27,1.27,0,0,0,.42-.18,1.29,1.29,0,0,0,.36-.34,2.26,2.26,0,0,0,.29-.54,4.41,4.41,0,0,0,.23-.77c0-.3.1-.65.13-1.06s.05-.86.05-1.36v-.23H21v4.45h1.63V18.66H18.06v.82m-.76,4.86a.16.16,0,0,1-.16-.16.16.16,0,1,1,.32,0A.16.16,0,0,1,17.3,24.34Zm4.78-5.44a.16.16,0,1,1-.16.16A.16.16,0,0,1,22.08,18.9Zm0,5.11a.17.17,0,0,1,.16.17.16.16,0,0,1-.32,0A.17.17,0,0,1,22.08,24ZM18.62,18.9a.16.16,0,1,1-.16.16A.16.16,0,0,1,18.62,18.9Z"/><path class="cls-1" d="M23.86,24.54h1.62V18.66H23.86Zm.83-5.64a.16.16,0,1,1-.16.16A.16.16,0,0,1,24.69,18.9Zm0,5.11a.17.17,0,0,1,.16.17.16.16,0,0,1-.32,0A.17.17,0,0,1,24.69,24Z"/><path class="cls-1" d="M31,18.66H26.77v5.88H28.4V20.09H31V18.66m-3.61,5.68a.16.16,0,0,1-.16-.16.16.16,0,1,1,.32,0A.16.16,0,0,1,27.39,24.34Zm0-5.12a.16.16,0,1,1,.16-.16A.16.16,0,0,1,27.39,19.22Zm3.11,0a.16.16,0,1,1,.16-.16A.16.16,0,0,1,30.5,19.22Z"/><path class="cls-1" d="M33.73,18.62H32.17l-2.51,5.92h1.72l.41-1.05h2.27l.43,1.05h1.74l-2.5-5.92m-3.07,5.72a.16.16,0,0,1-.16-.16.17.17,0,0,1,.16-.17.17.17,0,1,1,0,.33ZM33,18.9a.16.16,0,1,1-.16.16A.16.16,0,0,1,33,18.9Zm-.68,3.32.67-1.67.65,1.67Zm2.93,2.12a.16.16,0,0,1-.16-.16A.17.17,0,0,1,35.2,24a.17.17,0,1,1,0,.33Z"/><path class="cls-1" d="M18.79,26.44a1.49,1.49,0,0,0,1,.33,1.39,1.39,0,0,0,1.48-1.28l-.89-.16a1.07,1.07,0,0,1-.23.38.52.52,0,0,1-.36.12c-.27,0-.47-.16-.59-.5l-.89.16a1.5,1.5,0,0,0,.48,1m.89-.25a.16.16,0,1,1,.23.23.15.15,0,0,1-.23,0A.17.17,0,0,1,19.68,26.19Z"/><path class="cls-1" d="M5.8,29.16,4.4,26.89H2.68v5.87H4.27V29.4l1.49,2.28h0l1.49-2.29v3.37H8.92V26.89H7.2L5.8,29.16M3.24,27.44a.16.16,0,1,1,.16-.16A.16.16,0,0,1,3.24,27.44Zm.33,5.12a.16.16,0,1,1,0-.32.16.16,0,1,1,0,.32Zm4.85-5.44a.16.16,0,1,1-.16.16A.16.16,0,0,1,8.42,27.12Zm-.25,5.12A.16.16,0,1,1,8,32.4.16.16,0,0,1,8.17,32.24Z"/><path class="cls-1" d="M12.19,26.85l-2.5,5.91H11.4l.42-1h2.26l.43,1h1.75l-2.5-5.91H12.19m-1.43,5.71a.16.16,0,1,1,0-.32.16.16,0,0,1,0,.32ZM13,27.12a.16.16,0,1,1,0,.32.16.16,0,1,1,0-.32Zm-.72,3.32L13,28.77l.66,1.67Zm2.92,1.8a.16.16,0,1,1-.16.16A.16.16,0,0,1,15.22,32.24Z"/><path class="cls-1" d="M18.65,30.19v-3.3H17v5.87h1.52l2.27-3.31v3.31h1.61V26.89H20.92l-2.27,3.3m-.75,2.37a.16.16,0,1,1,.16-.16A.16.16,0,0,1,17.9,32.56Zm0-5.12a.16.16,0,1,1,.16-.16A.16.16,0,0,1,17.9,27.44Zm3.75-.32a.16.16,0,0,1,0,.32.16.16,0,1,1,0-.32Zm0,5.12a.16.16,0,0,1,0,.32.16.16,0,1,1,0-.32Z"/><path class="cls-1" d="M27.28,31.23a1.41,1.41,0,0,1-.73.18,1.27,1.27,0,0,1-1-.46,1.82,1.82,0,0,1,0-2.25,1.27,1.27,0,0,1,1-.46,1.6,1.6,0,0,1,1.29.69L29,28a2.87,2.87,0,0,0-2.46-1.23,3.14,3.14,0,0,0-1.23.24,2.92,2.92,0,0,0-1,.64,2.82,2.82,0,0,0-.64,1,3,3,0,0,0-.24,1.19,3.16,3.16,0,0,0,.4,1.57,2.9,2.9,0,0,0,1.1,1.1,3,3,0,0,0,1.52.39,3.39,3.39,0,0,0,1.13-.18,3,3,0,0,0,.84-.45,4.16,4.16,0,0,0,.63-.68l-1.23-.88a2.25,2.25,0,0,1-.59.54m-.63-4.11a.16.16,0,1,1-.16.16A.16.16,0,0,1,26.65,27.12Zm0,5.44a.16.16,0,1,1,.16-.16A.16.16,0,0,1,26.65,32.56Z"/><path class="cls-1" d="M29.68,28.32h1.77v4.44h1.62V28.32h1.77V26.89H29.68v1.43m4.58-1.2a.16.16,0,1,1-.16.16A.16.16,0,0,1,34.26,27.12Zm-2,5.12a.16.16,0,1,1-.16.16A.16.16,0,0,1,32.26,32.24Zm-1.94-5.12a.16.16,0,1,1-.16.16A.16.16,0,0,1,30.32,27.12Z"/><path class="cls-1" d="M40.05,27.44a2.69,2.69,0,0,0-1.78-.55H35.75v5.87h1.63V31.07h.8a3.43,3.43,0,0,0,1.3-.23A1.94,1.94,0,0,0,40.71,29a1.86,1.86,0,0,0-.66-1.52m-3.59,5.12a.16.16,0,1,1,.16-.16A.16.16,0,0,1,36.46,32.56Zm0-5.12a.16.16,0,1,1,.16-.16A.16.16,0,0,1,36.46,27.44Zm1.81-.27a.16.16,0,1,1,.23.23.16.16,0,0,1-.23-.23Zm.56,2.42a1,1,0,0,1-.68.22h-.77V28.24h.76a1.07,1.07,0,0,1,.69.2.79.79,0,0,1,0,1.15Z"/><path class="cls-1" d="M41.64,32.76h1.62V26.89H41.64Zm.76-5.59a.16.16,0,1,1,.23.23.16.16,0,0,1-.23-.23Zm0,5.11a.17.17,0,0,1,.23,0,.15.15,0,0,1,0,.23.16.16,0,0,1-.23-.23Z"/><path class="cls-1" d="M49.51,30.22a2,2,0,0,0-.87-.54,1.37,1.37,0,0,0,.9-1.32,1.24,1.24,0,0,0-.38-.95,2.17,2.17,0,0,0-1.6-.52h-3v5.87h3a2.71,2.71,0,0,0,1.64-.43,1.36,1.36,0,0,0,.59-1.17,1.38,1.38,0,0,0-.3-.94m-2-3a.15.15,0,0,1,.23,0,.16.16,0,1,1-.23,0Zm-1.37,1H47.2a1,1,0,0,1,.55.13.45.45,0,0,1,.18.38c0,.36-.25.54-.76.54h-1Zm-.8,4.18a.16.16,0,1,1,0-.23A.17.17,0,0,1,45.35,32.35Zm0-5a.16.16,0,0,1-.23-.23.15.15,0,0,1,.23,0A.17.17,0,0,1,45.35,27.4ZM48,31.33a1.06,1.06,0,0,1-.58.14H46.15v-1.1h1.23a1,1,0,0,1,.6.14.47.47,0,0,1,.2.39A.51.51,0,0,1,48,31.33Z"/><path class="cls-1" d="M71,10.19c0,1.22,0,2.3-.07,3.26s-.1,1.75-.17,2.4a11.62,11.62,0,0,1-.28,1.66,5.91,5.91,0,0,1-.34,1.07,1.57,1.57,0,0,1-.42.59,1.27,1.27,0,0,1-.44.27,2.31,2.31,0,0,1-.49,0,4,4,0,0,1-.92-.08l-.27,3.08a6.76,6.76,0,0,0,1,.21,8,8,0,0,0,1.38.11,5.08,5.08,0,0,0,1.15-.12,3.27,3.27,0,0,0,1-.44,3.31,3.31,0,0,0,.89-.83,5.75,5.75,0,0,0,.72-1.32,10.42,10.42,0,0,0,.54-1.91,24.27,24.27,0,0,0,.33-2.58q.12-1.5.12-3.36V11.7h3.35V22.61h4V8.19H71v2M69.11,22.12a.4.4,0,0,1,0-.79.4.4,0,1,1,0,.79ZM80.86,8.76a.4.4,0,0,1,.4.4.39.39,0,0,1-.4.39.38.38,0,0,1-.39-.39A.39.39,0,0,1,80.86,8.76Zm0,12.57a.4.4,0,1,1,0,.79.4.4,0,0,1,0-.79ZM72.35,8.76a.4.4,0,0,1,.4.4.39.39,0,0,1-.4.39A.38.38,0,0,1,72,9.16.39.39,0,0,1,72.35,8.76Z"/><path class="cls-1" d="M85.22,22.61h4V8.19h-4Zm2-13.85a.4.4,0,0,1,.4.4.39.39,0,0,1-.4.39.38.38,0,0,1-.39-.39A.39.39,0,0,1,87.26,8.76Zm0,12.57a.4.4,0,1,1,0,.79.4.4,0,0,1,0-.79Z"/><path class="cls-1" d="M102.77,8.19H92.39V22.61h4V11.7h6.39V8.19M93.91,22.12a.4.4,0,1,1,.4-.39A.4.4,0,0,1,93.91,22.12Zm0-12.57a.39.39,0,0,1-.4-.39.4.4,0,1,1,.8,0A.39.39,0,0,1,93.91,9.55Zm7.64,0a.39.39,0,0,1-.4-.39.4.4,0,1,1,.8,0A.39.39,0,0,1,101.55,9.55Z"/><path class="cls-1" d="M109.49,8.09h-3.85L99.49,22.61h4.21l1-2.57h5.57l1,2.57h4.29L109.49,8.09m-7.54,14a.4.4,0,1,1,.4-.39A.4.4,0,0,1,102,22.12Zm5.61-13.36a.4.4,0,0,1,.4.4.4.4,0,0,1-.8,0A.4.4,0,0,1,107.56,8.76Zm-1.66,8.17,1.63-4.11,1.61,4.11Zm7.2,5.19a.4.4,0,0,1,0-.79.4.4,0,1,1,0,.79Z"/><path class="cls-1" d="M164,7.08a4.07,4.07,0,0,0,4.9,0,3.67,3.67,0,0,0,1.19-2.33l-2.18-.39a2.27,2.27,0,0,1-.57.92,1.24,1.24,0,0,1-.89.32c-.67,0-1.15-.41-1.45-1.24l-2.18.39A3.71,3.71,0,0,0,164,7.08m2.19-.6a.4.4,0,0,1,.56,0,.4.4,0,0,1-.56.56A.4.4,0,0,1,166.15,6.48Z"/><path class="cls-1" d="M132,13.77l-3.44-5.58h-4.22V22.61h3.91V14.37L132,20H132l3.68-5.64v8.28h4V8.19h-4.24L132,13.77m-6.27-4.22a.4.4,0,1,1,0-.79.4.4,0,0,1,0,.79Zm.79,12.57a.4.4,0,0,1-.4-.4.4.4,0,0,1,.8,0A.4.4,0,0,1,126.55,22.12ZM138.47,8.76a.4.4,0,1,1,0,.79.4.4,0,0,1,0-.79Zm-.61,12.57a.39.39,0,0,1,.4.39.4.4,0,1,1-.79,0A.39.39,0,0,1,137.86,21.33Z"/><path class="cls-1" d="M147.75,8.09,141.6,22.61h4.2l1-2.57h5.56l1.06,2.57h4.29L151.6,8.09h-3.85m-3.53,14a.4.4,0,0,1-.4-.4.4.4,0,0,1,.79,0A.4.4,0,0,1,144.22,22.12Zm5.55-13.36a.4.4,0,1,1-.4.39A.4.4,0,0,1,149.77,8.76ZM148,16.93l1.63-4.11,1.61,4.11Zm7.17,4.4a.39.39,0,0,1,.4.39.4.4,0,0,1-.4.4.39.39,0,0,1-.39-.4A.38.38,0,0,1,155.18,21.33Z"/><path class="cls-1" d="M163.6,16.3V8.19h-3.95V22.61h3.73L169,14.49v8.12h4V8.19h-3.74L163.6,16.3m-1.82,5.82a.4.4,0,0,1-.4-.4.4.4,0,0,1,.8,0A.4.4,0,0,1,161.78,22.12Zm0-12.57a.4.4,0,1,1,.4-.4A.4.4,0,0,1,161.78,9.55ZM171,8.76a.4.4,0,1,1,0,.79.4.4,0,0,1,0-.79Zm0,12.57a.39.39,0,0,1,.4.39.4.4,0,0,1-.4.4.39.39,0,0,1-.39-.4A.38.38,0,0,1,171,21.33Z"/><path class="cls-1" d="M184.81,18.86a3.47,3.47,0,0,1-1.79.44,3.12,3.12,0,0,1-2.47-1.12,4.06,4.06,0,0,1-1-2.78,4.07,4.07,0,0,1,1-2.77A3.13,3.13,0,0,1,183,11.5a4,4,0,0,1,3.18,1.69l2.92-2.27a7.07,7.07,0,0,0-6.05-3,7.9,7.9,0,0,0-3,.59,7.06,7.06,0,0,0-4,4,7.9,7.9,0,0,0,.41,6.8,7.13,7.13,0,0,0,2.69,2.68,7.47,7.47,0,0,0,3.74,1,8.34,8.34,0,0,0,2.77-.43,6.93,6.93,0,0,0,2.06-1.12,8.92,8.92,0,0,0,1.56-1.66l-3-2.16a5.92,5.92,0,0,1-1.47,1.33m-1.55-10.1a.4.4,0,1,1-.4.39A.4.4,0,0,1,183.26,8.76Zm0,13.36a.4.4,0,0,1-.4-.4.4.4,0,0,1,.8,0A.4.4,0,0,1,183.26,22.12Z"/><path class="cls-1" d="M190.73,11.7h4.32V22.61h4V11.7h4.34V8.19H190.73V11.7M202,8.76a.4.4,0,0,1,0,.79.4.4,0,1,1,0-.79Zm-4.92,12.57a.39.39,0,0,1,.4.39.4.4,0,0,1-.4.4.39.39,0,0,1-.39-.4A.38.38,0,0,1,197.05,21.33ZM192.29,8.76a.4.4,0,1,1-.4.39A.4.4,0,0,1,192.29,8.76Z"/><path class="cls-1" d="M216.19,9.53a6.63,6.63,0,0,0-4.38-1.34h-6.17V22.61h4V18.47h2a8.29,8.29,0,0,0,3.19-.58,4.77,4.77,0,0,0,3-4.62,4.61,4.61,0,0,0-1.62-3.74m-8.82,12.59a.39.39,0,0,1-.39-.4.38.38,0,0,1,.39-.39.39.39,0,0,1,.4.39A.4.4,0,0,1,207.37,22.12Zm0-12.57a.4.4,0,0,1,0-.79.4.4,0,1,1,0,.79Zm4.46-.68a.4.4,0,0,1,.56,0,.4.4,0,0,1,0,.57.4.4,0,0,1-.56,0A.42.42,0,0,1,211.83,8.87Zm1.38,6a2.56,2.56,0,0,1-1.68.52h-1.9V11.5h1.88a2.65,2.65,0,0,1,1.7.5,1.77,1.77,0,0,1,.6,1.43A1.78,1.78,0,0,1,213.21,14.84Z"/><path class="cls-1" d="M220.09,22.61h4V8.19h-4ZM222,8.87a.4.4,0,0,1,.56,0,.42.42,0,0,1,0,.57.4.4,0,0,1-.56,0A.4.4,0,0,1,222,8.87Zm0,12.57a.4.4,0,1,1,.56.56.4.4,0,0,1-.56-.56Z"/><path class="cls-1" d="M239.43,16.37a4.67,4.67,0,0,0-2.14-1.32,3.34,3.34,0,0,0,2.23-3.25,3.14,3.14,0,0,0-.94-2.34,5.38,5.38,0,0,0-3.93-1.27h-7.39V22.61h7.44a6.74,6.74,0,0,0,4-1.05,3.36,3.36,0,0,0,1.44-2.89,3.41,3.41,0,0,0-.73-2.3m-4.88-7.5a.4.4,0,0,1,.56,0,.42.42,0,0,1,0,.57.4.4,0,0,1-.56,0A.4.4,0,0,1,234.55,8.87Zm-3.38,2.47h2.59a2.26,2.26,0,0,1,1.34.33,1.08,1.08,0,0,1,.47.93c0,.87-.63,1.31-1.89,1.31h-2.51Zm-1.95,10.27a.4.4,0,0,1-.56,0,.4.4,0,1,1,.56-.56A.4.4,0,0,1,229.22,21.61Zm0-12.17a.4.4,0,0,1-.56,0,.4.4,0,0,1,0-.57.4.4,0,0,1,.56,0A.42.42,0,0,1,229.22,9.44Zm6.45,9.65a2.42,2.42,0,0,1-1.42.36h-3.08V16.74h3a2.49,2.49,0,0,1,1.47.35,1.13,1.13,0,0,1,.49,1A1.2,1.2,0,0,1,235.67,19.09Z"/><path class="cls-1" d="M67.4,43.24V33.16h7.95V43.24H74.21V34.19H68.54v9.05Z"/><path class="cls-1" d="M76.93,43.35a3.94,3.94,0,0,1-.89-.11l.13-1a2.26,2.26,0,0,0,.53.1,1.54,1.54,0,0,0,.52-.08,1.19,1.19,0,0,0,.44-.42,2.47,2.47,0,0,0,.36-1,13.76,13.76,0,0,0,.23-1.75c.06-.76.09-1.68.09-2.77v-.62h5.27v7.45H82.5V36.77H79.39v.17a26.54,26.54,0,0,1-.13,2.9,11.08,11.08,0,0,1-.32,1.87,2.59,2.59,0,0,1-.54,1,1.62,1.62,0,0,1-.67.48A2.34,2.34,0,0,1,76.93,43.35Z"/><path class="cls-1" d="M87.59,43.39a3.18,3.18,0,0,1-2-.61,2,2,0,0,1-.82-1.73,2.11,2.11,0,0,1,.86-1.8A3.87,3.87,0,0,1,88,38.61a8.3,8.3,0,0,1,2.27.32V38.7a1.94,1.94,0,0,0-.57-1.5,2.4,2.4,0,0,0-1.63-.52,5.37,5.37,0,0,0-2.26.54l-.33-.91a6.48,6.48,0,0,1,2.71-.63,3.25,3.25,0,0,1,2.4.82,3,3,0,0,1,.78,2.19v4.55h-1.1V42.13A3.22,3.22,0,0,1,87.59,43.39Zm.21-.89a2.81,2.81,0,0,0,1.76-.56,1.74,1.74,0,0,0,.72-1.44v-.69a7.88,7.88,0,0,0-2.18-.32,2.71,2.71,0,0,0-1.59.41A1.3,1.3,0,0,0,85.93,41a1.28,1.28,0,0,0,.54,1.08A2.14,2.14,0,0,0,87.8,42.5Z"/><path class="cls-1" d="M94.79,43.24V36.77H92.12v-1h6.45v1H95.91v6.47Z"/><path class="cls-1" d="M103.66,45.54V42.63a2.84,2.84,0,0,1-1.86.76,2.66,2.66,0,0,1-2.19-1,4.43,4.43,0,0,1-.84-2.86,4.35,4.35,0,0,1,.84-2.82,2.69,2.69,0,0,1,2.19-1,2.77,2.77,0,0,1,1.86.81V33.16h1.12v3.28a2.75,2.75,0,0,1,1.86-.81,2.68,2.68,0,0,1,2.2,1,4.39,4.39,0,0,1,.84,2.84,4.32,4.32,0,0,1-.85,2.83,2.66,2.66,0,0,1-2.19,1,2.32,2.32,0,0,1-1-.19,4.46,4.46,0,0,1-.84-.57v2.91ZM102,42.42a2.18,2.18,0,0,0,1.63-.74V37.36a2.17,2.17,0,0,0-1.63-.73,1.79,1.79,0,0,0-1.57.77,3.74,3.74,0,0,0-.53,2.15C99.93,41.46,100.63,42.42,102,42.42Zm4.39,0c1.4,0,2.1-1,2.1-2.9A3.64,3.64,0,0,0,108,37.4a1.77,1.77,0,0,0-1.57-.77,2.21,2.21,0,0,0-1.64.73v4.32A2.22,2.22,0,0,0,106.42,42.42Z"/><path class="cls-1" d="M117.21,42.26a3.73,3.73,0,0,1-2.78,1.15,3.67,3.67,0,0,1-2.76-1.14,4,4,0,0,1,0-5.49,3.92,3.92,0,0,1,5.54,0,3.8,3.8,0,0,1,1.11,2.75A3.75,3.75,0,0,1,117.21,42.26Zm-2.75.16a2.54,2.54,0,0,0,2-.84,3.1,3.1,0,0,0,0-4.12,2.61,2.61,0,0,0-2-.85,2.5,2.5,0,0,0-2,.85,3,3,0,0,0-.76,2.06,2.86,2.86,0,0,0,.79,2A2.6,2.6,0,0,0,114.46,42.42Z"/><path class="cls-1" d="M119.61,45.54V35.79h1.11v1.5a3.36,3.36,0,0,1,2.85-1.66,3.45,3.45,0,0,1,2.49,1.06,4.25,4.25,0,0,1,0,5.64,3.41,3.41,0,0,1-2.49,1.06,3.32,3.32,0,0,1-2.85-1.58v3.73Zm3.76-3.14a2.48,2.48,0,0,0,1.87-.78,2.94,2.94,0,0,0,.75-2.11,2.87,2.87,0,0,0-.76-2.08,2.45,2.45,0,0,0-1.86-.8,2.56,2.56,0,0,0-1.89.82,2.87,2.87,0,0,0-.8,2.07,2.84,2.84,0,0,0,.8,2.07A2.59,2.59,0,0,0,123.37,42.4Z"/><path class="cls-1" d="M128.45,43.24V35.79h1.05l2.78,3.92,2.78-3.92h1.07v7.45H135V37.56l-2.75,3.78-2.72-3.78v5.68Z"/><path class="cls-1" d="M140.1,43.39a3.18,3.18,0,0,1-2-.61,2.27,2.27,0,0,1,.05-3.53,3.83,3.83,0,0,1,2.31-.64,8.42,8.42,0,0,1,2.28.32V38.7a1.91,1.91,0,0,0-.58-1.5,2.35,2.35,0,0,0-1.62-.52,5.34,5.34,0,0,0-2.26.54l-.34-.91a6.55,6.55,0,0,1,2.71-.63,3.26,3.26,0,0,1,2.41.82,3,3,0,0,1,.77,2.19v4.55h-1.09V42.13A3.24,3.24,0,0,1,140.1,43.39Zm.22-.89a2.78,2.78,0,0,0,1.75-.56,1.74,1.74,0,0,0,.72-1.44v-.69a7.81,7.81,0,0,0-2.17-.32,2.76,2.76,0,0,0-1.6.41,1.32,1.32,0,0,0-.57,1.12A1.28,1.28,0,0,0,139,42.1,2.14,2.14,0,0,0,140.32,42.5Z"/><path class="cls-1" d="M152.6,43.41a3.53,3.53,0,0,1-2.74-1.13,4.36,4.36,0,0,1-1-3.06q0-.7,0-1.2c0-.33,0-.7.11-1.1a3.91,3.91,0,0,1,.28-1,4.27,4.27,0,0,1,.48-.85,2.4,2.4,0,0,1,.77-.71,3.73,3.73,0,0,1,1.11-.43l4.14-1,.22.94-4,1a2.82,2.82,0,0,0-1.61.92,3.2,3.2,0,0,0-.57,1.73,3.32,3.32,0,0,1,3.08-1.61A3.39,3.39,0,0,1,155.36,37a3.62,3.62,0,0,1,1.06,2.62,3.76,3.76,0,0,1-1.1,2.71A3.64,3.64,0,0,1,152.6,43.41Zm0-1a2.44,2.44,0,0,0,1.88-.82,2.83,2.83,0,0,0,.75-2,2.78,2.78,0,0,0-.77-2,2.6,2.6,0,0,0-3.78,0,2.86,2.86,0,0,0-.75,2,2.76,2.76,0,0,0,.78,2A2.48,2.48,0,0,0,152.63,42.42Z"/><path class="cls-1" d="M158.56,45.58a3.59,3.59,0,0,1-1.58-.37l.37-.88a2.58,2.58,0,0,0,1.17.27,1.26,1.26,0,0,0,.85-.3,3.15,3.15,0,0,0,.67-1.09l-3.38-7.42h1.22L160.59,42,163,35.79h1.18L161,43.48a4.27,4.27,0,0,1-1,1.62A2.17,2.17,0,0,1,158.56,45.58Z"/><path class="cls-1" d="M163.82,45.09V42.26h.8a10.91,10.91,0,0,0,1-5.17v-1.3h5.3v6.47H172l-.17,2.83H171V43.24h-6l-.21,1.85Zm2-2.83h4V36.77h-3.13v1A9.45,9.45,0,0,1,165.8,42.26Z"/><path class="cls-1" d="M172.88,34.16V32.94h1.26v1.22Zm.07,9.08V35.79h1.11v7.45Z"/><path class="cls-1" d="M175.91,43.24V35.79h3.6a2.82,2.82,0,0,1,1.77.51,1.58,1.58,0,0,1,.67,1.35,1.77,1.77,0,0,1-1.24,1.71c1.09.3,1.64.92,1.64,1.85a1.75,1.75,0,0,1-.73,1.48,3.28,3.28,0,0,1-2,.55ZM177,39h2.29a1.75,1.75,0,0,0,1.1-.31,1,1,0,0,0,.41-.89.9.9,0,0,0-.39-.76,1.79,1.79,0,0,0-1.09-.29H177Zm0,3.3h2.48a2.11,2.11,0,0,0,1.25-.33,1.08,1.08,0,0,0,.46-.93,1,1,0,0,0-.48-.85,2.62,2.62,0,0,0-1.38-.3H177Z"/><path class="cls-1" d="M186.89,43.41a3.57,3.57,0,0,1-2.65-1.09,3.83,3.83,0,0,1-1.07-2.8,4,4,0,0,1,1-2.76,3.3,3.3,0,0,1,2.55-1.13,3.14,3.14,0,0,1,2.54,1.13,4.26,4.26,0,0,1,.93,2.82c0,.14,0,.27,0,.39h-5.91a2.7,2.7,0,0,0,.86,1.8,2.51,2.51,0,0,0,1.76.67,3.15,3.15,0,0,0,2.35-1L190,42A4,4,0,0,1,186.89,43.41Zm-2.6-4.33h4.8a3.2,3.2,0,0,0-.71-1.8,2.11,2.11,0,0,0-1.67-.71,2.2,2.2,0,0,0-1.63.7A3,3,0,0,0,184.29,39.08Z"/><path class="cls-1" d="M191.08,43.35a4.1,4.1,0,0,1-.9-.11l.13-1a2.24,2.24,0,0,0,.54.1,1.43,1.43,0,0,0,.51-.08,1.12,1.12,0,0,0,.44-.42,2.63,2.63,0,0,0,.37-1,14.09,14.09,0,0,0,.22-1.75c.07-.76.1-1.68.1-2.77v-.62h5.27v7.45h-1.11V36.77h-3.11v.17a26.54,26.54,0,0,1-.13,2.9,12,12,0,0,1-.33,1.87,2.47,2.47,0,0,1-.54,1,1.66,1.66,0,0,1-.66.48A2.38,2.38,0,0,1,191.08,43.35Z"/><path class="cls-1" d="M199.51,43.24V35.79h1.11v2.8h2a3.73,3.73,0,0,1,2.12.55,1.91,1.91,0,0,1,.82,1.68,2.2,2.2,0,0,1-.77,1.76,3,3,0,0,1-2,.66Zm1.11-1h2A2.14,2.14,0,0,0,204,41.9a1.24,1.24,0,0,0,.46-1,1.13,1.13,0,0,0-.48-1,2.35,2.35,0,0,0-1.34-.33h-2Z"/><path class="cls-1" d="M206.54,43.24V35.79h1.11V39h4.29V35.79h1.11v7.45h-1.11V40h-4.29v3.26Z"/><path class="cls-1" d="M214.81,43.24V35.79h1.1v5.89l4.42-5.89h1.09v7.45h-1.11V37.35l-4.44,5.89Z"/><path class="cls-1" d="M223.17,43.24V35.79h1.11v4.29l4.08-4.29h1.36L226.61,39l3.2,4.22H228.5l-2.65-3.42-1.57,1.62v1.8Z"/><path class="cls-1" d="M230.65,34.16V32.94h1.26v1.22Zm.07,9.08V35.79h1.11v7.45Z"/><path class="cls-1" d="M233.68,43.24V35.79h3.6a2.82,2.82,0,0,1,1.77.51,1.58,1.58,0,0,1,.67,1.35,1.77,1.77,0,0,1-1.24,1.71c1.09.3,1.64.92,1.64,1.85a1.75,1.75,0,0,1-.73,1.48,3.28,3.28,0,0,1-2,.55ZM234.79,39h2.29a1.75,1.75,0,0,0,1.1-.31,1,1,0,0,0,.41-.89.92.92,0,0,0-.38-.76,1.84,1.84,0,0,0-1.1-.29h-2.32Zm0,3.3h2.48a2.11,2.11,0,0,0,1.25-.33A1.08,1.08,0,0,0,239,41a1,1,0,0,0-.48-.85,2.6,2.6,0,0,0-1.37-.3h-2.34Z"/></svg>